<?xml version="1.0" encoding="UTF-8"?>
<svg xmlns="http://www.w3.org/2000/svg" xmlns:xlink="http://www.w3.org/1999/xlink" xmlns:svgjs="http://svgjs.com/svgjs" version="1.1" width="512" height="512" x="0" y="0" viewBox="0 0 512.01 512.01" style="enable-background:new 0 0 512 512" xml:space="preserve" class="">
  <g>
    <path d="M459.945 256.01V106.677c.217-52.807-42.415-95.791-95.222-96.008a95.619 95.619 0 0 0-64.778 24.926C261.354.225 201.397 2.836 166.027 41.427a94.588 94.588 0 0 0-4.749 5.602V10.677H54.611V224.01h106.667v-85.333c0-11.782 9.551-21.333 21.333-21.333s21.333 9.551 21.333 21.333v85.333h106.667v-85.333c0-11.782 9.551-21.333 21.333-21.333 11.782 0 21.333 9.551 21.333 21.333v85.333l106.668 32z" style="" fill="#10a5e9" data-original="#03a9f4" class=""/>
    <path d="M459.945 266.677a10.278 10.278 0 0 1-3.072-.448l-106.667-32a10.667 10.667 0 0 1-7.595-10.219v-85.333c0-5.891-4.776-10.667-10.667-10.667s-10.667 4.776-10.667 10.667v85.333c0 5.891-4.776 10.667-10.667 10.667H203.945c-5.891 0-10.667-4.776-10.667-10.667v-85.333c0-5.891-4.776-10.667-10.667-10.667s-10.667 4.776-10.667 10.667v85.333c0 5.891-4.776 10.667-10.667 10.667H54.611c-5.891 0-10.667-4.776-10.667-10.667V10.677C43.944 4.786 48.72.01 54.611.01h106.667c5.891 0 10.667 4.776 10.667 10.667v11.072c38.049-28.073 89.951-28.073 128 0 46.678-35.57 113.354-26.566 148.924 20.112a106.258 106.258 0 0 1 21.742 64.794v149.333c0 5.891-4.776 10.667-10.667 10.667v.022zm-96-50.603 85.333 25.6V106.677c.219-46.916-37.635-85.126-84.551-85.346a84.942 84.942 0 0 0-57.635 22.178 10.667 10.667 0 0 1-14.293 0c-34.22-31.42-87.432-29.15-118.852 5.07a84.23 84.23 0 0 0-4.327 5.106c-3.671 4.607-10.383 5.365-14.99 1.694a10.665 10.665 0 0 1-4.018-8.435v-25.6H65.278v192h85.333v-74.667c-.01-17.673 14.309-32.008 31.982-32.018 17.673-.01 32.008 14.309 32.018 31.982v74.703h85.333v-74.667c0-17.673 14.327-32 32-32 17.673 0 32 14.327 32 32v77.397z" style="" fill="#37474f" data-original="#37474f" class=""/>
    <path d="M33.278 224.01h85.333c11.782 0 21.333 9.551 21.333 21.333v64c0 11.782-9.551 21.333-21.333 21.333H33.278c-11.782 0-21.333-9.551-21.333-21.333v-64c0-11.782 9.551-21.333 21.333-21.333z" style="" fill="#ef5350" data-original="#ef5350" class=""/>
    <path d="M118.611 341.343H33.278c-17.673 0-32-14.327-32-32v-64c0-17.673 14.327-32 32-32h85.333c17.673 0 32 14.327 32 32v64c0 17.674-14.327 32-32 32zM33.278 234.677c-5.891 0-10.667 4.776-10.667 10.667v64c0 5.891 4.776 10.667 10.667 10.667h85.333c5.891 0 10.667-4.776 10.667-10.667v-64c0-5.891-4.776-10.667-10.667-10.667H33.278z" style="" fill="#37474f" data-original="#37474f" class=""/>
    <path d="M33.278 330.677h85.333c11.782 0 21.333 9.551 21.333 21.333v128c0 11.782-9.551 21.333-21.333 21.333H33.278c-11.782 0-21.333-9.551-21.333-21.333v-128c0-11.782 9.551-21.333 21.333-21.333z" style="" fill="#ef5350" data-original="#ef5350" class=""/>
    <path d="M118.611 512.01H33.278c-17.673 0-32-14.327-32-32v-128c0-17.673 14.327-32 32-32h85.333c17.673 0 32 14.327 32 32v128c0 17.673-14.327 32-32 32zM33.278 341.343c-5.891 0-10.667 4.776-10.667 10.667v128c0 5.891 4.776 10.667 10.667 10.667h85.333c5.891 0 10.667-4.776 10.667-10.667v-128c0-5.891-4.776-10.667-10.667-10.667H33.278z" style="" fill="#37474f" data-original="#37474f" class=""/>
    <path d="M331.945 245.343v85.333c0 11.782-9.551 21.333-21.333 21.333h-42.667v128c0 11.782-9.551 21.333-21.333 21.333h-85.333c-11.782 0-21.333-9.551-21.333-21.333V245.343c0-11.782 9.551-21.333 21.333-21.333h149.333a21.33 21.33 0 0 1 14.293 5.547 21.783 21.783 0 0 1 7.04 15.786z" style="" fill="#ef5350" data-original="#ef5350" class=""/>
    <path d="M246.611 512.01h-85.333c-17.673 0-32-14.327-32-32V245.343c0-17.673 14.327-32 32-32h149.333a31.999 31.999 0 0 1 21.333 8.235 32.619 32.619 0 0 1 10.667 23.765v85.333c0 17.673-14.327 32-32 32h-32V480.01c0 17.673-14.327 32-32 32zm-85.333-277.333c-5.891 0-10.667 4.776-10.667 10.667V480.01c0 5.891 4.776 10.667 10.667 10.667h85.333c5.891 0 10.667-4.776 10.667-10.667v-128c0-5.891 4.776-10.667 10.667-10.667h42.667c5.891 0 10.667-4.776 10.667-10.667v-85.333a11.411 11.411 0 0 0-3.733-8.085 10.409 10.409 0 0 0-6.933-2.581H161.278z" style="" fill="#37474f" data-original="#37474f" class=""/>
    <path d="M473.385 447.583c-46.635 60.42-133.42 71.596-193.84 24.961a138.106 138.106 0 0 1-11.6-10.028V352.01h42.667c11.782 0 21.333-9.551 21.333-21.333v-85.333a21.781 21.781 0 0 0-7.04-15.787 138.165 138.165 0 0 1 39.04-5.547c2.56 0 5.333.213 7.893.427 63.496 3.558 116.39 49.94 128.213 112.427-39.694 36.511-97.004 46.59-146.773 25.813 20.44 48.993 67.101 81.979 120.107 84.906z" style="" fill="#ffc107" data-original="#ffc107" class=""/>
    <path d="M363.945 512.01a148.247 148.247 0 0 1-103.424-41.835 10.665 10.665 0 0 1-3.243-7.659V352.01c0-5.891 4.776-10.667 10.667-10.667h42.667c5.891 0 10.667-4.776 10.667-10.667v-85.333a11.411 11.411 0 0 0-3.733-8.085c-4.256-4.073-4.404-10.826-.33-15.081a10.671 10.671 0 0 1 4.704-2.86 141.393 141.393 0 0 1 50.773-5.525c68.394 3.758 125.344 53.808 137.856 121.152a10.664 10.664 0 0 1-3.243 9.813 150.336 150.336 0 0 1-132.267 35.925 128.556 128.556 0 0 0 98.987 56.32c5.882.319 10.392 5.346 10.073 11.229a10.662 10.662 0 0 1-2.244 5.987 148.546 148.546 0 0 1-117.91 57.792zm-85.334-54.144c49.47 44.614 124.949 43.619 173.227-2.283a149.887 149.887 0 0 1-108.373-88.832c-2.255-5.443.33-11.682 5.772-13.937a10.667 10.667 0 0 1 8.18.006c43.982 17.999 94.298 10.369 130.965-19.861-12.995-55.027-60.723-94.891-117.184-97.877a111.811 111.811 0 0 0-29.867 1.557 31.264 31.264 0 0 1 1.237 8.704v85.333c0 17.673-14.327 32-32 32h-32l.043 95.19z" style="" fill="#37474f" data-original="#37474f" class=""/>
    <path d="M406.611 341.343a10.666 10.666 0 0 1-10.347-8.085l-10.667-42.667c-1.426-5.72 2.056-11.513 7.776-12.939 5.72-1.426 11.513 2.056 12.939 7.776l10.667 42.667c1.424 5.714-2.052 11.501-7.765 12.928-.852.211-1.726.318-2.603.32zM438.611 330.677a10.666 10.666 0 0 1-10.347-8.085l-10.667-42.667c-1.426-5.72 2.056-11.513 7.776-12.939 5.72-1.426 11.513 2.056 12.939 7.776l10.667 42.667c1.424 5.714-2.052 11.501-7.765 12.928-.852.21-1.726.318-2.603.32z" style="" fill="#37474f" data-original="#37474f" class=""/>
    <path d="M353.278 234.677c-5.891 0-10.667-4.776-10.667-10.667v-85.333c0-5.891-4.776-10.667-10.667-10.667s-10.667 4.776-10.667 10.667v85.333c0 5.891-4.776 10.667-10.667 10.667H203.945c-5.891 0-10.667-4.776-10.667-10.667v-85.333c0-5.891-4.776-10.667-10.667-10.667s-10.667 4.776-10.667 10.667v85.333c0 5.891-4.776 10.667-10.667 10.667H54.611c-5.891 0-10.667-4.776-10.667-10.667V10.677C43.944 4.786 48.72.01 54.611.01h106.667c5.891 0 10.667 4.776 10.667 10.667v11.072c38.049-28.073 89.951-28.073 128 0 46.678-35.57 113.354-26.566 148.924 20.112a106.258 106.258 0 0 1 21.742 64.794c0 5.891-4.776 10.667-10.667 10.667s-10.667-4.776-10.667-10.667c.219-46.916-37.635-85.126-84.551-85.346a84.942 84.942 0 0 0-57.635 22.178 10.667 10.667 0 0 1-14.293 0c-34.22-31.42-87.432-29.15-118.852 5.07a84.23 84.23 0 0 0-4.327 5.106 10.668 10.668 0 0 1-19.008-6.72v-25.6H65.278v192h85.333v-74.667c-.01-17.673 14.309-32.008 31.982-32.018 17.673-.01 32.008 14.309 32.018 31.982v74.703h85.333v-74.667c0-17.673 14.327-32 32-32 17.673 0 32 14.327 32 32v85.333c.001 5.892-4.775 10.668-10.666 10.668z" fill="#000000" data-original="#000000" class=""/>
    <path d="M459.945 266.677c-5.891 0-10.667-4.776-10.667-10.667V106.677c0-5.891 4.776-10.667 10.667-10.667s10.667 4.776 10.667 10.667V256.01c-.001 5.891-4.776 10.667-10.667 10.667zM118.611 341.343H33.278c-17.673 0-32-14.327-32-32v-64c0-17.673 14.327-32 32-32h85.333c17.673 0 32 14.327 32 32v64c0 17.674-14.327 32-32 32zM33.278 234.677c-5.891 0-10.667 4.776-10.667 10.667v64c0 5.891 4.776 10.667 10.667 10.667h85.333c5.891 0 10.667-4.776 10.667-10.667v-64c0-5.891-4.776-10.667-10.667-10.667H33.278z" fill="#000000" data-original="#000000" class=""/>
    <path d="M118.611 512.01H33.278c-17.673 0-32-14.327-32-32v-128c0-17.673 14.327-32 32-32h85.333c17.673 0 32 14.327 32 32v128c0 17.673-14.327 32-32 32zM33.278 341.343c-5.891 0-10.667 4.776-10.667 10.667v128c0 5.891 4.776 10.667 10.667 10.667h85.333c5.891 0 10.667-4.776 10.667-10.667v-128c0-5.891-4.776-10.667-10.667-10.667H33.278z" fill="#000000" data-original="#000000" class=""/>
    <path d="M246.611 512.01h-85.333c-17.673 0-32-14.327-32-32V245.343c0-17.673 14.327-32 32-32h149.333a31.999 31.999 0 0 1 21.333 8.235 32.619 32.619 0 0 1 10.667 23.765v85.333c0 17.673-14.327 32-32 32h-32V480.01c0 17.673-14.327 32-32 32zm-85.333-277.333c-5.891 0-10.667 4.776-10.667 10.667V480.01c0 5.891 4.776 10.667 10.667 10.667h85.333c5.891 0 10.667-4.776 10.667-10.667v-128c0-5.891 4.776-10.667 10.667-10.667h42.667c5.891 0 10.667-4.776 10.667-10.667v-85.333a11.411 11.411 0 0 0-3.733-8.085 10.409 10.409 0 0 0-6.933-2.581H161.278z" fill="#000000" data-original="#000000" class=""/>
    <path d="M363.945 512.01a148.247 148.247 0 0 1-103.424-41.835 10.665 10.665 0 0 1-3.243-7.659V352.01c0-5.891 4.776-10.667 10.667-10.667h42.667c5.891 0 10.667-4.776 10.667-10.667v-85.333a11.411 11.411 0 0 0-3.733-8.085c-4.256-4.073-4.404-10.826-.33-15.081a10.671 10.671 0 0 1 4.704-2.86 141.438 141.438 0 0 1 50.773-5.525c68.394 3.758 125.344 53.808 137.856 121.152a10.664 10.664 0 0 1-3.243 9.813 150.314 150.314 0 0 1-132.267 35.925 128.556 128.556 0 0 0 98.987 56.32c5.882.319 10.392 5.346 10.073 11.229a10.662 10.662 0 0 1-2.244 5.987 148.546 148.546 0 0 1-117.91 57.792zm-85.334-54.144c49.47 44.614 124.949 43.619 173.227-2.283a149.887 149.887 0 0 1-108.373-88.832c-2.255-5.443.33-11.682 5.772-13.937a10.667 10.667 0 0 1 8.18.006c43.982 17.999 94.298 10.369 130.965-19.861-12.995-55.027-60.723-94.891-117.184-97.877a111.811 111.811 0 0 0-29.867 1.557 31.264 31.264 0 0 1 1.237 8.704v85.333c0 17.673-14.327 32-32 32h-32l.043 95.19z" fill="#000000" data-original="#000000" class=""/>
    <path d="M406.611 341.343a10.666 10.666 0 0 1-10.347-8.085l-10.667-42.667c-1.426-5.72 2.056-11.513 7.776-12.939 5.72-1.426 11.513 2.056 12.939 7.776l10.667 42.667c1.424 5.714-2.052 11.501-7.765 12.928-.852.211-1.726.318-2.603.32zM438.611 330.677a10.666 10.666 0 0 1-10.347-8.085l-10.667-42.667c-1.426-5.72 2.056-11.513 7.776-12.939 5.72-1.426 11.513 2.056 12.939 7.776l10.667 42.667c1.424 5.714-2.052 11.501-7.765 12.928-.852.21-1.726.318-2.603.32z" fill="#000000" data-original="#000000" class=""/>
  </g>
</svg>
