<?xml version="1.0" standalone="no"?><!DOCTYPE svg PUBLIC "-//W3C//DTD SVG 1.1//EN" "http://www.w3.org/Graphics/SVG/1.1/DTD/svg11.dtd"><svg t="1687878110489" class="icon" viewBox="0 0 1024 1024" version="1.1" xmlns="http://www.w3.org/2000/svg" p-id="2573" xmlns:xlink="http://www.w3.org/1999/xlink" width="200" height="200"><path d="M988.4 443.8l-119.6-81 27.4-142c5.2-26.4-3.2-53.6-22.2-72.8-19.2-19-46.4-27.4-72.4-22.2l-141.8 27.4-80.8-119.8c-30.2-44.6-103.8-44.6-134 0l-80.8 119.8-141.6-27.4C196 120.8 169 129 150 148.2c-19 19.2-27.4 46.2-22.2 72.6l27.4 142-119.6 81C13.2 459 0 484 0 511s13.4 52 35.6 67l119.6 81-27.4 142c-5.2 26.4 3.2 53.6 22.2 72.6 19 19 45.8 27.4 72.6 22.2l141.6-27.4 80.8 119.8C460 1010.6 485.2 1024 512 1024s52-13.4 67-35.6l80.8-119.8 141.8 27.4c26.8 5.4 53.6-3.2 72.6-22.2 19-19 27.2-46.2 22.2-72.6l-27.4-142 119.6-81c22.2-15 35.6-40.2 35.6-67-0.2-27.2-13.4-52.2-35.8-67.4z m-225.8 171.2l35.2 182.4-182-35.2L512 916l-103.8-154-181.8 35.2 35.2-182.4-153.6-104 153.6-104-35.2-182.4 182 35.2L512 106l103.8 153.8 182-35.2-35.2 182.2 153.6 104-153.6 104.2zM512 304c-114.6 0-208 93.4-208 208s93.4 208 208 208 208-93.4 208-208-93.4-208-208-208z m0 320c-61.8 0-112-50.2-112-112s50.2-112 112-112 112 50.2 112 112-50.2 112-112 112z" p-id="2574" fill="#fabc2a"></path></svg>