<?xml version="1.0" standalone="no"?><!DOCTYPE svg PUBLIC "-//W3C//DTD SVG 1.1//EN" "http://www.w3.org/Graphics/SVG/1.1/DTD/svg11.dtd"><svg class="icon" width="200px" height="200.00px" viewBox="0 0 1024 1024" version="1.1" xmlns="http://www.w3.org/2000/svg"><path d="M133.566 601.044h222.608v289.392H133.566z" fill="#FF52A0" /><path d="M445.218 311.652h222.608v578.782H445.218z" fill="#FFDE46" /><path d="M756.87 66.782h222.608v823.652H756.87z" fill="#006DF3" /><path d="M66.782 957.218V0H0v1024h1024v-66.782z"  /><path d="M823.654 890.434h155.824V66.782h-0.004v-0.002H756.87v66.782h0.002v690.09h-0.002v66.782H823.654z m0-756.872h89.042v690.09h-89.042V133.562zM512.002 890.434h155.824v-578.78h-0.004v-0.002H445.218v66.782h0.002v445.218h-0.002v66.782H512.002z m0-512h89.042v445.218h-89.042V378.434zM200.35 890.434h155.824V601.046h-0.004v-0.002H133.566v66.782h0.002v155.826h-0.002v66.782H200.35z m0-222.608h89.042v155.826h-89.042v-155.826z"  /></svg>