<?xml version="1.0" standalone="no"?><!DOCTYPE svg PUBLIC "-//W3C//DTD SVG 1.1//EN" "http://www.w3.org/Graphics/SVG/1.1/DTD/svg11.dtd"><svg class="icon" width="200px" height="200.00px" viewBox="0 0 1024 1024" version="1.1" xmlns="http://www.w3.org/2000/svg"><path d="M890.434 756.87v-66.784h-44.52V200.348h-66.784V133.566h-66.782V66.782h-66.782V0H378.434v66.782h-66.782v66.784h-66.782v66.782H178.086v489.738h-44.52v66.784H66.782v133.564h267.132v66.784h66.782V1024h222.608v-66.782h66.782v-66.784h267.132v-133.564z" fill="#FFDE46" /><path d="M890.434 756.87v-66.784h-44.52v-66.782H178.086v66.782h-44.52v66.784H66.782v133.564h890.436v-133.564z" fill="#FFAE37" /><path d="M378.434 44.522v22.26h-66.782V133.566h-66.782v66.782H178.086v489.738h111.306V200.348h22.26V178.086h44.522v-44.52h22.26V111.304h44.522V44.522zM133.566 734.608v22.262H66.782v133.564h111.304V690.086h-44.52zM378.434 868.174h-44.52v89.044H400.696V1024h44.522v-155.826z" fill="#FFFFFF" /><path d="M244.87 133.566h66.782v66.782h-66.782zM311.652 66.782h66.782v66.782h-66.782zM890.434 756.87v-66.784h-44.52V200.348h-66.784v489.738h-534.26V200.348H178.086v489.738h-44.52v66.784zM400.696 957.218h222.608V1024H400.696zM378.434 0h267.13v66.782H378.434zM712.348 133.566h66.782v66.782h-66.782zM645.566 66.782h66.782v66.782h-66.782zM890.434 756.87v66.782H133.566v-66.782H66.782v133.564h267.132v66.784h66.782v-66.784h222.608v66.784h66.782v-66.784h267.132v-133.564z"  /></svg>