<?xml version="1.0" standalone="no"?><!DOCTYPE svg PUBLIC "-//W3C//DTD SVG 1.1//EN" "http://www.w3.org/Graphics/SVG/1.1/DTD/svg11.dtd"><svg class="icon" width="200px" height="200.00px" viewBox="0 0 1024 1024" version="1.1" xmlns="http://www.w3.org/2000/svg"><path d="M845.914 111.304V44.522h-66.784v66.782h-133.564V44.522h-66.784v66.782h-133.564V44.522h-66.784v66.782h-133.564V44.522H178.086v66.782H0v801.392h66.782v66.782h890.436v-66.782H1024V111.304z" fill="#FF52A0" /><path d="M445.218 712.348H512v133.566h-66.782zM311.652 400.696h333.914V512h66.782v-178.086H311.652zM512 578.782h66.782v133.566H512zM578.782 512h66.782v66.782h-66.782z" fill="#FFFFFF" /><path d="M111.304 111.304H0v801.392h66.782v66.782h44.522V222.608H1024V111.304z" fill="#FFFFFF" /><path d="M66.782 912.696h890.434v66.782H66.782zM845.914 111.304V44.522h-66.784v66.782h-133.564V44.522h-66.784v66.782h-133.564V44.522h-66.784v66.782h-133.564V44.522H178.086v66.782H0v801.392h66.782V178.086h111.304v66.784h66.784V178.086h133.564v66.784h66.784V178.086h133.564v66.784h66.784V178.086h133.564v66.784h66.784V178.086h111.304v734.61H1024V111.304z"  /></svg>