<?xml version="1.0" standalone="no"?><!DOCTYPE svg PUBLIC "-//W3C//DTD SVG 1.1//EN" "http://www.w3.org/Graphics/SVG/1.1/DTD/svg11.dtd"><svg class="icon" width="200px" height="200.00px" viewBox="0 0 1024 1024" version="1.1" xmlns="http://www.w3.org/2000/svg"><path d="M0 55.652v779.13h400.696v133.566h133.564v-66.782h66.784v-66.784H1024V55.652z" fill="#E0E3FA" /><path d="M1024 55.652H0v779.13h111.304V166.956H1024z" fill="#FFFFFF" /><path d="M690.086 256h-133.564v66.782H489.74V256h-133.566v66.782h-66.782v200.348h66.782v66.784h133.566v66.782h66.782v-66.782h133.564v-66.784h66.784V322.782h-66.784z" fill="#FF52A0" /><path d="M534.26 834.782h66.782v66.782H534.26z"  /><path d="M0 55.652v779.13h400.696v133.566h133.564v-66.782h-66.782V768H66.782V122.434h890.436V768H601.044v66.782H1024V55.652z"  /></svg>