<?xml version="1.0" standalone="no"?><!DOCTYPE svg PUBLIC "-//W3C//DTD SVG 1.1//EN" "http://www.w3.org/Graphics/SVG/1.1/DTD/svg11.dtd"><svg class="icon" width="200px" height="200.00px" viewBox="0 0 1024 1024" version="1.1" xmlns="http://www.w3.org/2000/svg"><path d="M957.218 122.434V55.652H66.782v66.782H0V768h66.782v66.782h333.914v133.566h133.564v-66.782h66.784v-66.784h356.174V768H1024V122.434z" fill="#E0E3FA" /><path d="M957.218 122.434V55.652H66.782v66.782H0V768h66.782v66.782h66.784V189.218H1024V122.434z" fill="#FFFFFF" /><path d="M534.26 834.782h66.782v66.782H534.26zM0 122.434h66.782V768H0zM957.218 122.434H1024V768h-66.782zM467.478 834.782V768H66.782v66.782h333.914v133.566h133.564v-66.782h-66.782zM66.782 55.652h890.434v66.782H66.782zM601.044 768h356.174v66.782H601.044zM200.348 256h623.304v66.782H200.348zM200.348 411.826h623.304v66.782H200.348zM200.348 567.652h623.304v66.782H200.348z"  /></svg>