<?xml version="1.0" standalone="no"?><!DOCTYPE svg PUBLIC "-//W3C//DTD SVG 1.1//EN" "http://www.w3.org/Graphics/SVG/1.1/DTD/svg11.dtd"><svg class="icon" width="200px" height="200.00px" viewBox="0 0 1024 1024" version="1.1" xmlns="http://www.w3.org/2000/svg"><path d="M957.218 311.652v-111.304h-66.784V133.566h-66.782V66.782h-111.304V0H311.652v66.782h-111.304v66.784H133.566v66.782H66.782v111.304l-66.766 0.006v400.696h66.766v111.298h66.784V890.434h66.782V957.218h111.304V1024h400.696v-66.782h111.304V890.434h66.782V823.652h66.784v-111.298h22.274v-0.006H1024V311.652z" fill="#006DF3" /><path d="M890.434 311.652h-66.782v-111.31h-111.304V133.558H311.652v66.784h-111.304v111.31H133.566v400.696h66.782v111.304h111.304V890.434h400.696V823.652h111.304v-111.304h66.782z" fill="#FFFFFF" /><path d="M200.348 66.782h111.304v66.782h-111.304zM133.566 133.566h66.782v66.782H133.566zM66.782 200.348h66.782v111.304H66.782zM66.782 712.348h66.782v111.304H66.782zM133.566 823.652h66.782v66.782H133.566zM200.348 890.434h111.304v66.782h-111.304zM311.652 0h400.696v66.782H311.652zM311.652 957.218h400.696V1024H311.652zM0 311.652h66.782v400.696H0zM712.348 66.782h111.304v66.782h-111.304zM823.652 133.566h66.782v66.782h-66.782zM890.434 200.348h66.782v111.304h-66.782zM890.434 712.348h66.782v111.304h-66.782zM823.652 823.652h66.782v66.782h-66.782zM712.348 890.434h111.304v66.782h-111.304zM957.218 311.652H1024v400.696h-66.782zM556.522 155.826H489.74v311.652H289.392v66.782h267.13v-44.52z"  /></svg>