<?xml version="1.0" standalone="no"?><!DOCTYPE svg PUBLIC "-//W3C//DTD SVG 1.1//EN" "http://www.w3.org/Graphics/SVG/1.1/DTD/svg11.dtd"><svg class="icon" width="200px" height="200.00px" viewBox="0 0 1024 1024" version="1.1" xmlns="http://www.w3.org/2000/svg"><path d="M0 155.826h1024v712.348H0z" fill="#006DF3" /><path d="M1024 289.392V155.826H0v133.566h66.782v66.782h66.784v66.782h66.782v66.784h66.782v66.782h111.304v66.782h267.132v-66.782h111.304V489.74h66.782v-66.784h66.782v-66.782h66.784v-66.782z" fill="#E0E3FA" /><path d="M1024 155.826H0v712.348h111.304V267.13H1024z" fill="#FFFFFF" /><path d="M133.566 356.174h66.782v66.782H133.566zM200.348 422.956h66.782v66.782h-66.782zM267.13 489.74h111.304v66.782h-111.304zM823.652 356.174h66.782v66.782h-66.782zM756.87 422.956h66.782v66.782h-66.782zM645.566 489.74h111.304v66.782h-111.304zM378.434 556.522h267.13v66.782H378.434z"  /><path d="M0 155.826v712.348h1024V155.826H0z m957.218 133.566h-66.782v66.782h66.782v445.218H66.782V356.174h66.782v-66.782H66.782v-66.782h890.434v66.782z"  /></svg>