<?xml version="1.0" standalone="no"?><!DOCTYPE svg PUBLIC "-//W3C//DTD SVG 1.1//EN" "http://www.w3.org/Graphics/SVG/1.1/DTD/svg11.dtd"><svg class="icon" width="200px" height="200.00px" viewBox="0 0 1024 1024" version="1.1" xmlns="http://www.w3.org/2000/svg"><path d="M1024 400.696v-133.566h-66.782V66.782h-66.784V0H690.086v66.782h-66.782v66.784H400.696V66.782h-66.782V0H133.566v66.782H66.782v200.348H0v133.566h66.782v556.522h0.016v0.006h66.768V1024H890.434v-66.772h66.798V467.49h-0.014v-66.794z" fill="#83C9FF" /><path d="M890.434 66.782V0H690.086v66.782h-66.782v66.784H400.696V66.782h-66.782V0H133.566v66.782H66.782v267.132h333.914V1024h222.608V333.914h333.914V66.782z" fill="#FB0023" /><path d="M333.914 200.348V133.566h-133.566v200.348h200.348v-133.566zM690.086 200.348V133.566h133.566v200.348H623.304v-133.566z" fill="#85000E" /><path d="M333.914 66.782h66.782v66.782h-66.782zM133.566 0h200.348v66.782H133.566zM623.304 66.782h66.782v66.782h-66.782zM400.696 133.566h222.608v66.782H400.696z"  /><path d="M1024 267.13h-66.782V66.782h-66.782V0H690.086v66.782h200.348v200.348H690.086v-66.782h-66.782v66.782H400.696v-66.782h-66.782v66.782H133.566V66.782H66.782v200.348H0v133.564h66.782v556.522h66.782V1024h756.87v-66.782H623.304v-489.74h267.13v489.74h66.782V400.696H1024v-133.566z m-467.478 66.784v66.782h-89.044v-66.782h89.044z m-155.826 0v66.782H66.782v-66.782h333.914zM133.566 957.218v-489.74h267.13v489.74H133.566z m422.956 0h-89.044v-489.74h89.044v489.74z m400.696-556.522H623.304v-66.782h333.914v66.782z"  /></svg>