<?xml version="1.0" standalone="no"?><!DOCTYPE svg PUBLIC "-//W3C//DTD SVG 1.1//EN" "http://www.w3.org/Graphics/SVG/1.1/DTD/svg11.dtd"><svg class="icon" width="200px" height="200.00px" viewBox="0 0 1024 1024" version="1.1" xmlns="http://www.w3.org/2000/svg"><path d="M957.17 211.496V144.718h-66.78v-66.78H623.274v66.78h-66.78v66.778h-89.038V144.718h-66.778v-66.78H133.56v66.78H66.782v66.778H0.002v400.674h66.78v66.78H133.56v66.78h66.78v66.778h133.558v66.78h133.558v66.778h89.038v-66.778h133.56v-66.78h133.558v-66.778h66.778v-66.78h66.78v-66.752H1024V211.522z" fill="#FF52A0" /><path d="M623.274 77.938v66.78h-66.78v66.778h-89.038v66.78H623.274v-66.78h66.78V77.938zM133.56 144.718H66.782v66.778H0.002v66.78H133.56v-66.78h66.78V77.938H133.56z" fill="#FFFFFF" /><path d="M66.78 144.712h66.78v66.78H66.78zM890.388 144.712h66.78v66.78h-66.78zM556.492 144.712h66.78v66.78h-66.78zM66.78 612.166h66.78v66.78H66.78zM890.388 612.166h66.78v66.78h-66.78zM333.896 812.504h133.558v66.78h-133.558zM556.492 812.504h133.558v66.78h-133.558zM400.674 144.712h66.78v66.78h-66.78zM467.454 211.492h89.038v66.78h-89.038zM690.052 745.724h133.558v66.78h-133.558zM200.338 745.724h133.558v66.78h-133.558z"  /><path d="M133.558 678.946h66.78v66.78h-66.78zM823.61 678.946h66.78v66.78h-66.78zM467.454 879.284h89.038v66.78h-89.038zM133.558 77.934h267.116v66.78H133.558zM623.272 77.934h267.116v66.78H623.272zM0 211.492h66.78v400.674H0zM957.168 211.492h66.78v400.674h-66.78z"  /></svg>