<?xml version="1.0" standalone="no"?><!DOCTYPE svg PUBLIC "-//W3C//DTD SVG 1.1//EN" "http://www.w3.org/Graphics/SVG/1.1/DTD/svg11.dtd"><svg class="icon" width="200px" height="200.00px" viewBox="0 0 1024 1024" version="1.1" xmlns="http://www.w3.org/2000/svg"><path d="M957.218 467.478v-66.782h-66.784V0H690.086v133.566h-66.782V66.782h-66.782V0h-89.044v66.782h-66.782v66.784h-66.782v66.782h-66.784v66.782h-66.782v66.784H133.566v66.782H66.782v66.782H0v66.782h66.782V1024h311.652V623.304h267.132V1024h311.652V534.26H1024v-66.782z" fill="#E0E3FA" /><path d="M690.086 0v267.13h66.784v66.784h66.782v66.782h66.782V0z" fill="#FFAE37" /><path d="M957.218 467.478v-66.782h-66.784v-66.782h-66.782v-66.784h-66.782v-66.782h-66.784V133.566h-66.782V66.782h-66.782V0h-89.044v66.782h-66.782v66.784h-66.782v66.782h-66.784v66.782h-66.782v66.784H133.566v66.782H66.782v66.782H0v66.782h200.348v-66.782h66.782v-66.782h66.784v-66.782h66.782v-66.784h66.782v-66.782h89.044v66.782h66.782v66.784h66.782v66.782h66.784v66.782h66.782v66.782H1024v-66.782z" fill="#B757D1" /><path d="M467.478 0h89.044v66.782h-89.044zM333.914 133.566h66.782v66.782h-66.782zM267.13 200.348h66.782v66.782h-66.782zM200.348 267.13h66.782v66.782h-66.782zM133.566 333.914h66.782v66.782H133.566zM66.782 400.696h66.782v66.782H66.782zM0 467.478h66.782v66.782H0zM690.086 200.348v66.782h66.784V66.782h66.782v333.914h66.782V0H690.086v133.566h-66.782v66.782zM556.522 66.782h66.782v66.782h-66.782zM400.696 66.782h66.782v66.782h-66.782zM890.434 957.218h-178.086V556.522H311.652v400.696H133.566V534.26H66.782V1024h311.652V623.304h267.132V1024h311.652V534.26h-66.784zM890.434 400.696h66.782v66.782h-66.782zM957.218 467.478H1024v66.782h-66.782z"  /></svg>