<?xml version="1.0" standalone="no"?><!DOCTYPE svg PUBLIC "-//W3C//DTD SVG 1.1//EN" "http://www.w3.org/Graphics/SVG/1.1/DTD/svg11.dtd"><svg class="icon" width="200px" height="200.00px" viewBox="0 0 1024 1024" version="1.1" xmlns="http://www.w3.org/2000/svg"><path d="M957.218 422.956v-66.782H756.87V66.782h-66.784V0H489.74v289.392h-66.784v133.564h-66.782v66.784H0v467.478h356.174V1024h534.26v-66.782h66.784V823.652H1024V422.956z" fill="#E0E3FA" /><path d="M0.032 489.74H0v66.782h0.032v333.912H0v66.784h289.392V489.74z" fill="#006DF3" /><path d="M690.086 66.782V0H489.74v289.392h-66.784v133.564h-66.782v66.784H0v133.564h356.174v-66.782h66.782V489.74h66.784v-133.566h66.782V133.566h200.348V66.782z" fill="#FFFFFF" /><path d="M823.652 890.434h66.782v66.784h66.784v-133.566h-133.566zM422.956 289.392h66.782v133.566h-66.782zM356.174 422.956h66.782v66.782h-66.782zM356.174 957.218h534.26V1024h-534.26zM289.392 890.434V556.522h66.782V489.74H0V957.218H356.172v-66.782h-66.78z m-222.61 0V556.522h155.826v333.914H66.782zM556.522 66.782h133.564V0H489.74v289.392h66.782z"  /><path d="M957.218 422.956V512h-133.566v66.782h133.566v89.044h-133.566v66.782h133.566v89.044H1024V422.956zM690.086 422.956h267.132v-66.782H756.87V66.782h-66.784v289.392z"  /></svg>