<?xml version="1.0" standalone="no"?><!DOCTYPE svg PUBLIC "-//W3C//DTD SVG 1.1//EN" "http://www.w3.org/Graphics/SVG/1.1/DTD/svg11.dtd"><svg class="icon" width="200px" height="200.00px" viewBox="0 0 1024 1024" version="1.1" xmlns="http://www.w3.org/2000/svg"><path d="M0 0h467.478v467.478H0z" fill="#FFDE46" /><path d="M556.522 0H1024v467.478H556.522z" fill="#B757D1" /><path d="M0 556.522h467.478V1024H0z" fill="#FF52A0" /><path d="M556.522 556.522H1024V1024H556.522z" fill="#006DF3" /><path d="M66.782 0H0V467.478H467.478V0H66.782z m333.914 400.696H66.782V66.782h333.914v333.914zM957.218 0H556.522V467.478H1024V0h-66.782z m0 400.696H623.304V66.782h333.914v333.914zM66.782 556.522H0V1024H467.478V556.522H66.782z m333.914 400.696H66.782V623.304h333.914v333.914zM623.304 556.522h-66.782V1024H1024V556.522H623.304z m333.914 400.696H623.304V623.304h333.914v333.914z"  /></svg>