<?xml version="1.0" standalone="no"?><!DOCTYPE svg PUBLIC "-//W3C//DTD SVG 1.1//EN" "http://www.w3.org/Graphics/SVG/1.1/DTD/svg11.dtd"><svg class="icon" width="200px" height="200.00px" viewBox="0 0 1024 1024" version="1.1" xmlns="http://www.w3.org/2000/svg"><path d="M957.218 278.26v-66.782H734.608V144.696h-66.782V77.914H356.174v66.782h-66.782v66.782H66.782v66.782H0v667.826h1024V278.26z" fill="#006DF3" /><path d="M712.348 434.086v-66.782h-66.782v-66.782H378.434v66.782h-66.782v66.782h-66.782v267.132h66.782V768h66.782v66.782h267.132V768h66.782v-66.782h66.782V434.086z" fill="#83C9FF" /><path d="M411.826 467.478h89.044v89.044h-89.044z" fill="#FFFFFF" /><path d="M645.566 367.304v-66.782H378.434v66.782h-66.782v66.782h-66.782v267.132h66.782V768h44.522V434.086h22.26v-22.26h333.914v-44.522z" fill="#FFFFFF" /><path d="M244.87 278.26h44.522V256h44.522v-44.522h22.26v-22.26h44.522V77.914h-44.522v66.782h-66.782v66.782H66.782v66.782H0v667.826h111.304V322.782h133.566z" fill="#FFFFFF" /><path d="M957.218 278.26v601.044H66.782V278.26H0v667.826h1024V278.26z"  /><path d="M378.434 300.522h267.13v66.782H378.434zM378.434 768h267.13v66.782H378.434zM712.348 434.086h66.782v267.13h-66.782zM244.87 434.086h66.782v267.13h-66.782zM311.652 367.304h66.782v66.782h-66.782zM645.566 367.304h66.782v66.782h-66.782zM311.652 701.218h66.782V768h-66.782zM645.566 701.218h66.782V768h-66.782zM289.392 144.696h66.782v66.782h-66.782zM667.826 144.696h66.782v66.782h-66.782zM66.782 211.478h222.608v66.782H66.782zM734.608 211.478h222.608v66.782H734.608zM356.174 77.914h311.652v66.782H356.174z"  /></svg>