<?xml version="1.0" standalone="no"?><!DOCTYPE svg PUBLIC "-//W3C//DTD SVG 1.1//EN" "http://www.w3.org/Graphics/SVG/1.1/DTD/svg11.dtd"><svg class="icon" width="200px" height="200.00px" viewBox="0 0 1024 1024" version="1.1" xmlns="http://www.w3.org/2000/svg"><path d="M890.434 244.87H133.566v712.348h66.782V1024h623.304v-66.782h66.782z" fill="#00CCB2" /><path d="M267.13 244.87H133.566v712.348h66.782V1024h66.782V378.434h623.304v-133.564z" fill="#FFFFFF" /><path d="M333.914 66.782h66.782v66.782h-66.782zM400.696 0h222.608v66.782H400.696z"  /><path d="M890.434 244.87h-133.564V133.562h-66.776v-66.78h-66.784v66.784h66.776v111.304H333.914V133.566h-66.784v111.304H133.566V957.218h66.782V1024h623.304v-66.782H200.348V311.652h66.782v66.782h66.784v-66.782h356.172v66.78h66.784v-66.78h66.782v645.566h66.782z"  /></svg>