<?xml version="1.0" standalone="no"?><!DOCTYPE svg PUBLIC "-//W3C//DTD SVG 1.1//EN" "http://www.w3.org/Graphics/SVG/1.1/DTD/svg11.dtd"><svg class="icon" width="200px" height="200.00px" viewBox="0 0 1024 1024" version="1.1" xmlns="http://www.w3.org/2000/svg"><path d="M1024 356.174H0v333.912h66.782v133.566h66.784v133.566h66.782V1024h623.304v-66.782h66.782v-133.566h66.784v-133.566H1024z" fill="#A971FF" /><path d="M133.566 356.174H0v200.348h133.566V489.74H1024v-133.566zM0 623.304v66.782h66.782v66.784h66.784v-133.566H66.782z" fill="#FFFFFF" /><path d="M200.348 957.218h623.304V1024H200.348zM66.782 690.086h66.782v133.566H66.782zM133.566 823.652h66.782v133.566H133.566zM890.434 690.086h66.782v133.566h-66.782zM823.652 823.652h66.782v133.566h-66.782zM957.218 356.174v-155.826h-66.784v155.826H133.566v-155.826H66.782v155.826H0v333.912h66.782V422.956h890.436v267.13H1024V356.174zM200.348 66.782h66.782v66.782h-66.782z"  /><path d="M133.566 133.566h66.782v66.782H133.566zM267.13 0h489.74v66.782h-489.74zM756.87 66.782h66.782v66.782h-66.782zM823.652 133.566h66.782v66.782h-66.782zM467.478 556.522h66.782v333.914h-66.782zM222.608 578.782h66.782v133.566h-66.782zM289.392 712.348h66.782v133.566h-66.782zM712.348 578.782h66.782v133.566h-66.782z"  /><path d="M645.566 712.348h66.782v133.566h-66.782z"  /></svg>