<?xml version="1.0" standalone="no"?><!DOCTYPE svg PUBLIC "-//W3C//DTD SVG 1.1//EN" "http://www.w3.org/Graphics/SVG/1.1/DTD/svg11.dtd"><svg class="icon" width="200px" height="200.00px" viewBox="0 0 1024 1024" version="1.1" xmlns="http://www.w3.org/2000/svg"><path d="M823.652 89.044h66.782v66.782h-66.782zM890.434 22.26H1024v66.782h-133.566zM756.87 155.826v66.782H0V534.26h66.782v133.566h66.784v66.782h66.782v200.348h66.782v66.784h133.566v-66.784h66.782v-66.782h89.044v66.782h66.782v66.784h133.566v-66.784h66.782V155.826z" fill="#83C9FF" /><path d="M133.566 222.608H0v178.088h133.566v-44.522h690.086v-133.566zM0 467.478v66.782h66.782v66.784h66.784v-133.566H66.782z" fill="#FFFFFF" /><path d="M467.478 801.392h-66.782v-66.784h-133.566v66.784h-66.782v133.564h66.782v66.784h133.566v-66.784h66.782zM823.652 801.392h-66.782v-66.784h-133.566v66.784h-66.782v133.564h66.782v66.784h133.566v-66.784h66.782z" fill="#8A8891" /><path d="M400.696 801.392v-66.784H200.348v200.348h66.782v-133.564z"  /><path d="M267.13 934.956h133.566v66.782h-133.566zM556.522 801.392h-155.826v133.564h66.782v-66.782h89.044v66.782h66.782v-133.564zM623.304 934.956h133.566v66.782h-133.566zM823.652 89.044h66.782v66.782h-66.782z"  /><path d="M756.87 222.608H0V534.26h66.782V289.392h690.088v445.216h-133.566v66.784h133.566v133.564h66.782V155.826h-66.782zM890.434 22.26H1024v66.782h-133.566zM133.566 667.826h66.782v66.782H133.566z"  /><path d="M66.782 534.26h66.782v133.566H66.782z"  /></svg>