<?xml version="1.0" standalone="no"?><!DOCTYPE svg PUBLIC "-//W3C//DTD SVG 1.1//EN" "http://www.w3.org/Graphics/SVG/1.1/DTD/svg11.dtd"><svg class="icon" width="200px" height="200.00px" viewBox="0 0 1024 1024" version="1.1" xmlns="http://www.w3.org/2000/svg"><path d="M779.13 66.782V0h-534.26v66.782H178.086v890.436h66.784V1024h534.26v-66.782h66.784V66.782z" fill="#B757D1" /><path d="M178.086 133.566h667.826v756.87H178.086z" fill="#83C9FF" /><path d="M311.652 601.044h66.782v66.782h-66.782zM378.434 534.26h66.782v66.782h-66.782zM445.218 467.478H512v66.782h-66.782zM512 400.696h66.782v66.782H512zM578.782 333.914h66.782v66.782h-66.782zM645.566 267.13h66.782v66.782h-66.782zM311.652 534.26v-66.782h66.782v-66.782h66.784v-66.782H512v-66.784h66.782V133.566h-133.564v133.564h-66.784v66.784h-66.782v66.782H178.086v133.564h66.784zM289.392 200.348V0h-44.522v66.782H178.086v133.566h66.784zM712.348 133.566v133.564h133.566V133.566zM178.086 667.826v66.782h133.566v-66.782h-66.782zM178.086 957.218h66.784V1024h44.522V823.652H178.086z" fill="#FFFFFF" /><path d="M244.87 0h534.26v66.782h-534.26zM244.87 957.218h534.26V1024h-534.26zM779.13 66.782v66.782h-534.26V66.782H178.086v890.434h66.782v-66.782h534.26v66.782h66.782V66.782h-66.78z m-534.26 756.87V200.348h534.26v623.304h-534.26z"  /></svg>