<?xml version="1.0" standalone="no"?><!DOCTYPE svg PUBLIC "-//W3C//DTD SVG 1.1//EN" "http://www.w3.org/Graphics/SVG/1.1/DTD/svg11.dtd"><svg class="icon" width="200px" height="200.00px" viewBox="0 0 1024 1024" version="1.1" xmlns="http://www.w3.org/2000/svg"><path d="M756.87 66.782V0h-133.566v66.782h-66.782v66.784H489.74v66.782h-66.784v66.782h-155.826v66.784h-66.782v356.172h66.782v66.784h155.826v66.782h66.784v66.782h66.782v66.784h66.782V1024h133.566v-66.782h66.782V66.782z" fill="#006DF3" /><path d="M756.87 66.782V0h-133.566v66.782h-66.782v66.784H489.74v66.782h-66.784v66.782h-155.826v66.784h-66.782v66.782h222.608v-66.782h66.784v-66.784h66.782v-66.782h66.782V133.566h200.348V66.782z" fill="#FFFFFF" /><path d="M200.348 333.914h66.782v356.174h-66.782zM756.87 66.782h66.782v890.434h-66.782zM267.13 267.13h155.826v66.782h-155.826zM267.13 690.086h155.826v66.782h-155.826zM422.956 200.348h66.782v66.782h-66.782zM489.74 133.566h66.782v66.782H489.74zM556.522 66.782h66.782v66.782h-66.782zM623.304 0h133.566v66.782h-133.566zM422.956 756.87h66.782v66.782h-66.782zM489.74 823.652h66.782v66.782H489.74zM556.522 890.434h66.782v66.782h-66.782zM623.304 957.218h133.566V1024h-133.566z"  /></svg>