<?xml version="1.0" standalone="no"?><!DOCTYPE svg PUBLIC "-//W3C//DTD SVG 1.1//EN" "http://www.w3.org/Graphics/SVG/1.1/DTD/svg11.dtd"><svg class="icon" width="200px" height="200.00px" viewBox="0 0 1024 1024" version="1.1" xmlns="http://www.w3.org/2000/svg"><path d="M891.548 244.87h66.782v534.26h-66.782zM757.982 356.174h66.782v311.652h-66.782z"  /><path d="M622.192 66.782V0h-133.566v66.782h-66.782v66.784H355.06v66.782h-66.782v66.782H132.452v66.784H65.67v356.172h66.782v66.784h155.826v66.782h66.782v66.782h66.784v66.784h66.782V1024h133.566v-66.782h66.782V66.782z" fill="#006DF3" /><path d="M622.192 66.782V0h-133.566v66.782h-66.782v66.784H355.06v66.782h-66.782v66.782H132.452v66.784H65.67v66.782h222.608v-66.782h66.782v-66.784h66.784v-66.782h66.782V133.566h200.348V66.782z" fill="#FFFFFF" /><path d="M65.67 333.914h66.782v356.174H65.67zM622.192 66.782h66.782v890.434h-66.782zM132.452 267.13h155.826v66.782H132.452zM132.452 690.086h155.826v66.782H132.452zM288.278 200.348h66.782v66.782h-66.782zM355.06 133.566h66.782v66.782H355.06zM421.844 66.782h66.782v66.782h-66.782zM488.626 0h133.566v66.782h-133.566zM288.278 756.87h66.782v66.782h-66.782zM355.06 823.652h66.782v66.782H355.06zM421.844 890.434h66.782v66.782h-66.782zM488.626 957.218h133.566V1024h-133.566z"  /></svg>