<?xml version="1.0" standalone="no"?><!DOCTYPE svg PUBLIC "-//W3C//DTD SVG 1.1//EN" "http://www.w3.org/Graphics/SVG/1.1/DTD/svg11.dtd"><svg class="icon" width="200px" height="200.00px" viewBox="0 0 1024 1024" version="1.1" xmlns="http://www.w3.org/2000/svg"><path d="M823.652 356.174h66.782v311.652h-66.782z"  /><path d="M690.086 66.782V0h-133.564v66.782H489.74v66.784h-66.784v66.782h-66.782v66.782h-155.826v66.784H133.566v356.172h66.782v66.784h155.826v66.782h66.782v66.782h66.784v66.784h66.782V1024h133.564v-66.782h66.784V66.782z" fill="#006DF3" /><path d="M690.086 66.782V0h-133.564v66.782H489.74v66.784h-66.784v66.782h-66.782v66.782h-155.826v66.784H133.566v66.782h222.608v-66.782h66.782v-66.784h66.784v-66.782h66.782V133.566h200.348V66.782z" fill="#FFFFFF" /><path d="M133.566 333.914h66.782v356.174H133.566zM690.086 66.782h66.782v890.434h-66.782zM200.348 267.13h155.826v66.782h-155.826z"  /><path d="M200.348 690.086h155.826v66.782h-155.826zM356.174 200.348h66.782v66.782h-66.782zM422.956 133.566h66.782v66.782h-66.782zM489.74 66.782h66.782v66.782H489.74zM556.522 0h133.566v66.782h-133.566zM356.174 756.87h66.782v66.782h-66.782zM422.956 823.652h66.782v66.782h-66.782zM489.74 890.434h66.782v66.782H489.74zM556.522 957.218h133.566V1024h-133.566z"  /></svg>