<?xml version="1.0" standalone="no"?><!DOCTYPE svg PUBLIC "-//W3C//DTD SVG 1.1//EN" "http://www.w3.org/Graphics/SVG/1.1/DTD/svg11.dtd"><svg class="icon" width="200px" height="200.00px" viewBox="0 0 1024 1024" version="1.1" xmlns="http://www.w3.org/2000/svg"><path d="M957.218 155.826H1024v712.348h-66.782zM823.652 244.87h66.782v534.26h-66.782zM690.086 356.174h66.782v311.652h-66.782z"  /><path d="M556.522 66.782V0h-133.566v66.782h-66.782v66.784h-66.782v66.782h-66.784v66.782H66.782v66.784H0v356.172h66.782v66.784h155.826v66.782h66.784v66.782h66.782v66.784h66.782V1024h133.566v-66.782h66.782V66.782z" fill="#006DF3" /><path d="M556.522 66.782V0h-133.566v66.782h-66.782v66.784h-66.782v66.782h-66.784v66.782H66.782v66.784H0v66.782h222.608v-66.782h66.784v-66.784h66.782v-66.782h66.782V133.566h200.348V66.782z" fill="#FFFFFF" /><path d="M0 333.914h66.782v356.174H0zM556.522 66.782h66.782v890.434h-66.782zM66.782 267.13h155.826v66.782H66.782zM66.782 690.086h155.826v66.782H66.782zM222.608 200.348h66.782v66.782h-66.782zM289.392 133.566h66.782v66.782h-66.782zM356.174 66.782h66.782v66.782h-66.782zM422.956 0h133.566v66.782h-133.566zM222.608 756.87h66.782v66.782h-66.782zM289.392 823.652h66.782v66.782h-66.782zM356.174 890.434h66.782v66.782h-66.782zM422.956 957.218h133.566V1024h-133.566z"  /></svg>