<?xml version="1.0" standalone="no"?><!DOCTYPE svg PUBLIC "-//W3C//DTD SVG 1.1//EN" "http://www.w3.org/Graphics/SVG/1.1/DTD/svg11.dtd"><svg class="icon" width="200px" height="200.00px" viewBox="0 0 1024 1024" version="1.1" xmlns="http://www.w3.org/2000/svg"><path d="M1024 333.918h-0.006v-0.002H756.864v-66.782h-66.782V178.09H623.3V66.786h-66.782V0.004h-89.042v66.782h-66.782v111.304h-66.784v89.044h-66.782v66.784H66.782v-0.002H0v178.086h66.782v66.782h66.782v445.214h178.086v-66.782 0.002h111.304V890.434h178.086V957.218h111.304v-0.002 66.782h178.086V578.784h66.782v-66.78H1024z" fill="#FFDE46" /><path d="M756.864 333.916v-66.782h-66.782V178.09H623.3V66.786h-66.782V0.004h-89.042v66.782h-66.782v111.304h-66.784v89.044h-66.782v66.782H0v133.564h267.128v-66.782h66.782v-66.782h66.784v-89.044h66.782V133.568h89.042v111.304h66.782v89.044h66.782v66.782h66.782v66.782h267.13v-133.564z" fill="#FFFFFF" /><path d="M267.128 333.916H0v178.086h66.782v-111.304h200.346v-66.782h66.782v-66.782h-66.782z"  /><path d="M66.782 511.998h66.782v66.782H66.782zM400.694 66.784h66.782v111.304h-66.782zM333.91 178.088h66.782v89.042h-66.782zM556.518 66.784h66.782v111.304h-66.782z"  /><path d="M623.3 178.088h66.782v89.042H623.3zM311.65 890.432h111.304v66.782h-111.304zM133.564 979.476v44.522h178.086v-66.782h-111.304V578.784H133.564v378.432zM890.43 511.998h66.782v66.782h-66.782zM823.646 957.216h-111.302v66.782h178.086V578.784h-66.784z"  /><path d="M756.864 333.916v-66.782h-66.782v66.782h66.782v66.782h200.348v111.304h66.782v-178.086zM601.04 890.432h111.304v66.782H601.04zM467.476 0.002h89.042v66.782h-89.042zM422.954 823.648h178.086v66.782h-178.086z"  /></svg>