<?xml version="1.0" standalone="no"?><!DOCTYPE svg PUBLIC "-//W3C//DTD SVG 1.1//EN" "http://www.w3.org/Graphics/SVG/1.1/DTD/svg11.dtd"><svg class="icon" width="200px" height="200.00px" viewBox="0 0 1024 1024" version="1.1" xmlns="http://www.w3.org/2000/svg"><path d="M879.304 267.13v-66.782h-66.782V133.566h-111.304V0H322.784v133.564H211.48v66.782H144.696v66.782H77.914v66.782h66.782v623.304h66.782V1024h601.044v-66.782h66.782V333.914h66.782v-66.782h-66.782zM389.566 66.782h244.87v66.782H389.566V66.782z" fill="#00CCB2" /><path d="M211.478 133.566v66.782H144.696v756.87h66.782V1024h66.782V133.566z" fill="#FFFFFF" /><path d="M345.044 400.696h66.782v489.74h-66.782zM612.174 400.696h66.782v489.74h-66.782zM812.522 133.566h-111.304V0H322.784v133.564H211.48v66.782h601.044v-66.78z m-178.088 0H389.566V66.782h244.87v66.784z"  /><path d="M879.304 267.13v-66.782h-66.782v66.782H211.478v-66.782H144.696v66.782H77.914v66.784h66.782v623.304h66.782V333.914h601.044v623.304h66.782V333.914h66.782v-66.784zM211.478 957.218h601.044V1024H211.478z"  /></svg>