<?xml version="1.0" standalone="no"?><!DOCTYPE svg PUBLIC "-//W3C//DTD SVG 1.1//EN" "http://www.w3.org/Graphics/SVG/1.1/DTD/svg11.dtd"><svg class="icon" width="200px" height="200.00px" viewBox="0 0 1024 1024" version="1.1" xmlns="http://www.w3.org/2000/svg"><path d="M601.044 745.74v-66.784H534.26v-133.564H601.044V278.26H534.26v-66.782h-66.782V144.696H200.348v66.782H133.566v66.782H66.782v267.132h66.784v133.564H66.782v66.784H0v200.346h667.826V745.74z" fill="#60DC4D" /><path d="M200.348 144.696v66.782H133.566v66.782H66.782v66.784h133.566V278.26h66.782V144.696zM133.566 678.956H66.782v66.784H0v66.782h133.566V745.74h66.782v-133.566H133.566z" fill="#FFFFFF" /><path d="M957.218 678.956v-66.782h-66.784v-133.566h66.784V211.478h-66.784V144.696h-66.782V77.914H556.522v66.782h66.782v66.782h66.782v467.478h44.522V879.304H1024V678.956z" fill="#60DC4D" /><path d="M66.782 278.26h66.782v267.13H66.782zM534.26 278.26h66.782v267.13H534.26zM200.348 144.696h267.13v66.782H200.348zM133.566 211.478h66.782v66.782H133.566zM467.478 211.478h66.782v66.782h-66.782zM467.478 612.174h-66.782v66.782h133.564v-133.564h-66.782zM66.782 678.956h66.782v66.782H66.782zM534.26 678.956h66.782v66.782H534.26zM601.044 745.74v133.564H66.782V745.74H0v200.346h667.826V745.74zM267.13 678.956v-66.782h-66.782v-66.782H133.566v133.564h66.782zM890.434 211.478h66.782v267.13h-66.782zM556.522 77.914h267.13v66.782H556.522zM823.652 144.696h66.782v66.782h-66.782zM890.434 478.608h-66.782v66.784h-66.782v66.782h133.564v-66.782zM890.434 612.174h66.782v66.782h-66.782zM957.218 678.956v133.566H734.608v66.782H1024V678.956z"  /></svg>