<?xml version="1.0" standalone="no"?><!DOCTYPE svg PUBLIC "-//W3C//DTD SVG 1.1//EN" "http://www.w3.org/Graphics/SVG/1.1/DTD/svg11.dtd"><svg class="icon" width="200px" height="200.00px" viewBox="0 0 1024 1024" version="1.1" xmlns="http://www.w3.org/2000/svg"><path d="M868.174 868.174v-66.782h-66.782v-66.784h-66.784v-133.564h66.784V534.26h66.782V200.348h-66.782V133.566H734.608V66.782h-66.782V0H356.174v66.782h-66.782v66.784h-66.784v66.782H155.826V534.26h66.782v66.784h66.784v133.564h-66.784v66.784H155.826v66.782H89.044V1024h845.912v-155.826z" fill="#60DC4D" /><path d="M289.392 667.826v66.782h-66.784v66.784H155.826v66.782H89.044V1024h133.564v-155.826h66.784v-66.782h66.782v-133.566zM155.826 467.478v66.782h66.782v66.784h66.784v-133.566h-66.784zM801.392 200.348V133.566h-66.784V66.782h-66.782V0H356.174v66.782h-66.782v66.784h-66.784v66.782H155.826v200.348h133.566V200.348h66.782V133.566h311.652v66.782h66.782v66.782h133.566v-66.782z" fill="#FFFFFF" /><path d="M155.826 200.348h66.782v333.914H155.826zM801.392 200.348h66.782v333.914h-66.782zM356.174 0h311.652v66.782H356.174zM222.608 133.566h66.782v66.782h-66.782zM289.392 66.782h66.782v66.782h-66.782zM667.826 66.782h66.782v66.782h-66.782zM734.608 133.566h66.782v66.782h-66.782zM222.608 534.26h66.782v66.782h-66.782zM734.608 534.26h66.782v66.782h-66.782zM667.826 667.826h-66.782v66.782h133.564v-133.564h-66.782zM155.826 801.392h66.782v66.782H155.826zM801.392 801.392h66.782v66.782h-66.782z"  /><path d="M868.174 868.174v89.044H155.826v-89.044H89.044V1024h845.912v-155.826zM222.608 734.608h66.782v66.782h-66.782zM734.608 734.608h66.782v66.782h-66.782zM422.956 734.608v-66.782h-66.782v-66.782h-66.782v133.564h66.782z"  /></svg>