<?xml version="1.0" standalone="no"?><!DOCTYPE svg PUBLIC "-//W3C//DTD SVG 1.1//EN" "http://www.w3.org/Graphics/SVG/1.1/DTD/svg11.dtd"><svg class="icon" width="200px" height="200.00px" viewBox="0 0 1024 1024" version="1.1" xmlns="http://www.w3.org/2000/svg"><path d="M957.218 200.348V133.566h-66.784V66.782h-66.782V0H400.696v66.782h-66.782v66.784h-66.784v66.782h-66.782v489.738H133.566v66.784H66.782v66.782H0v133.566h66.782V1024h133.566v-66.782h66.782v-66.784h66.784v-66.782h489.738v-66.782h66.782v-66.784h66.784v-66.782H1024V200.348z" fill="#FF52A0" /><path d="M400.696 0v66.782h-66.782v66.784h-66.784v66.782h-66.782v66.782h133.566v-66.782h66.782V133.566h66.782V0zM200.348 623.304v66.782H133.566v66.784H66.782v66.782H0v66.782h133.566v-66.782h66.782v-66.782h66.782v-133.566z" fill="#FFFFFF" /><path d="M0 823.652h66.782v133.566H0zM267.13 623.304V200.348h-66.782v489.738h66.782zM133.566 690.086h66.782v66.782H133.566zM66.782 756.87h66.782v66.782H66.782zM66.782 957.218h133.566V1024H66.782zM333.914 756.87v66.782h489.738v-66.782H400.696zM267.13 823.652h66.782v66.782h-66.782zM200.348 890.434h66.782v66.782h-66.782zM957.218 200.348H1024v422.956h-66.782zM400.696 0h422.956v66.782H400.696zM267.13 133.566h66.782v66.782h-66.782zM333.914 66.782h66.782v66.782h-66.782zM823.652 66.782h66.782v66.782h-66.782zM890.434 133.566h66.782v66.782h-66.782zM890.434 623.304h66.782v66.782h-66.782zM823.652 690.086h66.782v66.782h-66.782z"  /><path d="M678.956 356.174v-155.826h-133.564v155.826H378.434v133.566H545.392v155.826h133.564V489.74H845.914v-133.566h-66.784z" fill="#FFFFFF" /></svg>