<?xml version="1.0" standalone="no"?><!DOCTYPE svg PUBLIC "-//W3C//DTD SVG 1.1//EN" "http://www.w3.org/Graphics/SVG/1.1/DTD/svg11.dtd"><svg class="icon" width="200px" height="200.00px" viewBox="0 0 1024 1024" version="1.1" xmlns="http://www.w3.org/2000/svg"><path d="M957.218 445.218v-66.782h-66.782v-133.566h66.782V133.566h-66.782V66.782h-111.304v66.782h-133.566V66.782h-66.782V0h-133.566v66.782h-66.782v66.782h-133.566V66.782H133.566v66.782H66.782v111.304h66.782v133.566H66.782v66.782H0v133.566h66.782v66.782h66.782v133.566H66.782v111.304h66.782v66.782h111.304v-66.782h133.566v66.782h66.782V1024h133.566v-66.782h66.782v-66.782h133.566v66.782h111.304v-66.782h66.782v-111.304h-66.782v-133.566h66.782v-66.782H1024v-133.566h-66.782z m-333.914 178.086v66.782H400.696v-66.782h-66.782V400.696h66.782v-66.782h222.608v66.782h66.782v222.608h-66.782z" fill="#FFAE37" /><path d="M779.13 779.13h66.782v66.782h-66.782zM133.566 133.566H66.782v66.782h133.566V66.782H133.566zM445.218 66.782h-66.784v66.784H512V0h-66.782zM845.914 200.348V66.782h-66.784v66.784h-66.782v66.782h66.782zM133.566 512v-133.566H66.782v66.784H0V512h66.782zM133.566 779.13H66.782v66.784h133.566v-133.566H133.566zM378.434 823.652v66.782H512v-66.782h-66.782zM823.652 378.434V512h66.782v-133.566z" fill="#FFFFFF" /><path d="M400.696 267.13h222.608v66.782H400.696zM400.696 690.086h222.608v66.782H400.696zM690.086 400.696h66.782v222.608h-66.782zM267.13 400.696h66.782v222.608h-66.782zM333.914 333.914h66.782v66.782h-66.782zM623.304 333.914h66.782v66.782h-66.782zM333.914 623.304h66.782v66.782h-66.782zM623.304 623.304h66.782v66.782h-66.782zM445.218 200.348V66.782h-66.784v66.784h-133.564v66.782zM66.782 133.566h66.782v111.304H66.782zM133.566 66.782h111.304v66.782H133.566zM779.13 66.782h111.304v66.782h-111.304zM890.434 133.566h66.782v111.304h-66.782zM779.13 200.348V133.566h-133.564V66.782h-66.784v133.566zM445.218 0h133.566v66.782h-133.566zM200.348 779.13V578.782H66.782v66.784h66.784v133.564zM66.782 779.13h66.782v111.304H66.782zM133.566 890.434h111.304v66.782H133.566zM578.782 823.652v133.566h66.784v-66.784h133.564v-66.782zM890.434 645.566h66.784v-66.784h-133.566v200.348h66.782z"  /><path d="M890.434 779.13h66.782v111.304h-66.782zM779.13 890.434h111.304v66.782h-111.304zM244.87 823.652v66.782h133.564v66.784h66.784v-133.566zM445.218 957.218h133.566V1024h-133.566zM957.218 445.218v-66.784h-66.784v-133.564h-66.782V445.22l133.566-0.002v133.564H1024v-133.564zM66.782 445.218h133.566V244.87H133.566v133.564H66.782v66.784H0v133.564h66.782z"  /></svg>