<?xml version="1.0" standalone="no"?><!DOCTYPE svg PUBLIC "-//W3C//DTD SVG 1.1//EN" "http://www.w3.org/Graphics/SVG/1.1/DTD/svg11.dtd"><svg t="1687929606297" class="icon" viewBox="0 0 1024 1024" version="1.1" xmlns="http://www.w3.org/2000/svg" p-id="8629" xmlns:xlink="http://www.w3.org/1999/xlink" width="200" height="200"><path d="M128 170.666667h725.333333a42.666667 42.666667 0 0 1 42.666667 42.666666v85.333334a42.666667 42.666667 0 0 1-42.666667 42.666666H128a42.666667 42.666667 0 0 1-42.666667-42.666666V213.333333a42.666667 42.666667 0 0 1 42.666667-42.666666z m298.666667 256h426.666666a42.666667 42.666667 0 0 1 42.666667 42.666666v341.333334a42.666667 42.666667 0 0 1-42.666667 42.666666H426.666667a42.666667 42.666667 0 0 1-42.666667-42.666666v-341.333334a42.666667 42.666667 0 0 1 42.666667-42.666666z" fill="#739e82" p-id="8630"></path><path d="M85.333333 426.666667m42.666667 0l128 0q42.666667 0 42.666667 42.666666l0 341.333334q0 42.666667-42.666667 42.666666l-128 0q-42.666667 0-42.666667-42.666666l0-341.333334q0-42.666667 42.666667-42.666666Z" fill="#739e82" opacity=".3" p-id="8631"></path></svg>