<?xml version="1.0" standalone="no"?><!DOCTYPE svg PUBLIC "-//W3C//DTD SVG 1.1//EN" "http://www.w3.org/Graphics/SVG/1.1/DTD/svg11.dtd"><svg t="1687877507892" class="icon" viewBox="0 0 1024 1024" version="1.1" xmlns="http://www.w3.org/2000/svg" p-id="19673" xmlns:xlink="http://www.w3.org/1999/xlink" width="200" height="200"><path d="M288.998 738.284C346.186 794.396 424.552 829 511 829c120.81 0 225.836-67.581 279.335-167C814.365 617.344 828 566.264 828 512c0-8.414-0.328-16.751-0.972-25l-538.03 251.284z" fill="#739e82" p-id="19674"></path><path d="M511 859c-46.832 0-92.278-9.179-135.077-27.281-41.324-17.479-78.431-42.494-110.289-74.353-31.858-31.858-56.874-68.965-74.353-110.289C173.179 604.278 164 558.831 164 512c0-40.342 6.873-79.884 20.429-117.528 13.095-36.364 32.102-70.117 56.492-100.32 10.41-12.891 29.297-14.902 42.188-4.492 12.891 10.409 14.902 29.297 4.492 42.188C245.993 383.372 224 445.667 224 512c0 158.252 128.748 287 287 287s287-128.748 287-287c0-66.332-21.992-128.628-63.6-180.152-10.409-12.89-8.398-31.778 4.492-42.188 12.891-10.41 31.779-8.397 42.188 4.493 24.391 30.203 43.396 63.956 56.491 100.32C851.127 432.116 858 471.658 858 512c0 46.831-9.179 92.278-27.281 135.077-17.479 41.324-42.494 78.431-74.353 110.289s-68.965 56.874-110.289 74.353C603.278 849.821 557.831 859 511 859z" fill="#739e82" p-id="19675"></path><path d="M511 521c-16.5 0-30-13.5-30-30V183c0-16.5 13.5-30 30-30s30 13.5 30 30v308c0 16.5-13.5 30-30 30z" fill="#739e82" p-id="19676"></path></svg>