<?xml version="1.0" standalone="no"?><!DOCTYPE svg PUBLIC "-//W3C//DTD SVG 1.1//EN" "http://www.w3.org/Graphics/SVG/1.1/DTD/svg11.dtd"><svg t="1687920450560" class="icon" viewBox="0 0 1192 1024" version="1.1" xmlns="http://www.w3.org/2000/svg" p-id="4576" xmlns:xlink="http://www.w3.org/1999/xlink" width="232.8125" height="200"><path d="M603.40171 78.507c-2.56 0-5.974-0.854-8.534-3.414-5.12-4.266-5.974-12.8-0.854-17.92 33.28-37.546 92.16-41.813 131.414-9.386 5.12 4.266 5.973 11.946 1.706 17.92-4.266 5.12-11.946 5.973-17.92 1.706C680.20171 43.52 636.68171 46.08 612.78771 73.387c-2.56 4.266-5.974 5.12-9.387 5.12z m466.772 87.893c-5.973 0-11.093-4.267-11.946-10.24-6.827-35.84-42.667-60.587-80.214-53.76-6.826 0.853-13.653-3.413-14.506-10.24s3.413-13.653 10.24-14.507c50.346-8.533 98.986 24.747 109.226 74.24 1.707 6.827-3.413 13.654-10.24 14.507h-2.56z" fill="#545971" p-id="4577"></path><path d="M1180.25371 500.907c0 231.253-194.56 418.133-435.2 418.133s-435.2-186.88-435.2-418.133 194.56-418.134 435.2-418.134c239.787 0 435.2 186.88 435.2 418.134" fill="#FFE04A" p-id="4578"></path><path d="M744.20171 931.84c-246.614 0-448-192.853-448-430.933 0-237.227 200.532-430.934 448-430.934 246.612 0 448 192.854 448 430.934 0 237.226-200.534 430.933-448 430.933z m0-837.12c-232.96 0-423.254 181.76-423.254 405.333s189.44 405.334 423.253 405.334c232.96 0 423.253-181.76 423.253-405.334 0-222.72-189.44-405.333-423.253-405.333z" fill="#545971" p-id="4579"></path><path d="M740.78771 787.627c-181.76 0-339.627-57.174-414.72-180.054 52.053 174.934 217.6 302.934 414.72 302.934s362.666-128 414.72-302.934c-75.947 122.88-232.96 180.054-414.72 180.054" fill="#EFCF4B" p-id="4580"></path><path d="M783.45371 321.707C646.06771 295.253 547.08171 322.56 501.00171 396.8c-46.08 74.24-66.56 205.653-24.747 311.467 41.814 105.813 284.16 175.786 419.84 98.986 135.68-75.946 67.414-296.106 67.414-296.106s-42.667-162.987-180.054-189.44z" fill="#545971" p-id="4581"></path><path d="M734.81371 586.24c-210.773-19.627-232.96 113.493-232.96 113.493S577.80171 810.667 722.86771 815.787c144.213 5.12 202.24-64.854 202.24-64.854s21.333-145.92-190.294-164.693z" fill="#DD6B73" p-id="4582"></path><path d="M782.60171 348.16c-137.388-26.453-227.84 0.853-273.92 75.093-21.334 45.227-30.72 80.214-5.12 69.974 26.452-10.24 59.732-117.76 241.492-90.454C927.66771 430.08 912.30771 560.64 945.58771 537.6c-4.267-12.8-24.747-162.987-162.987-189.44z" fill="#FFFFFF" p-id="4583"></path><path d="M1028.36171 299.52h-0.854c-9.387-0.853-16.214-8.533-15.36-17.92 0-1.707 1.706-49.493-56.32-68.267-60.587-18.773-91.307 14.507-92.16 16.214-5.974 6.826-17.067 7.68-23.894 1.706-6.826-5.973-7.68-16.213-1.706-23.04 1.706-2.56 46.08-52.053 128-26.453 67.413 21.333 81.92 75.947 80.213 102.4-2.56 8.533-9.387 15.36-17.92 15.36z m-330.24-78.507c-9.388 0-16.214-6.826-17.068-16.213 0-5.12-3.413-31.573-36.693-35.84-35.84-4.267-46.08 31.573-46.933 33.28-2.56 8.533-11.947 13.653-20.48 11.093-8.534-2.56-13.654-11.946-11.094-20.48 6.827-22.186 32.427-63.146 82.774-57.173 51.2 5.973 64.853 46.933 65.706 68.267 0.854 9.386-5.973 17.066-16.213 17.066 0.853 0 0.853 0 0 0z" fill="#545971" p-id="4584"></path><path d="M465.16171 794.453c0 12.8-15.36 23.04-34.134 23.04s-34.134-10.24-34.134-23.04V670.72c0-12.8 15.36-23.04 34.134-23.04s34.133 10.24 34.133 23.04v123.733z" fill="#8DCD00" p-id="4585"></path><path d="M431.02771 827.733c-24.747 0-44.374-14.506-44.374-33.28V670.72c0-18.773 19.627-33.28 44.374-33.28s44.373 14.507 44.373 33.28v123.733c0 18.774-18.773 33.28-44.373 33.28z m0-169.813c-12.8 0-23.04 6.827-23.04 11.947V793.6c0 5.973 10.24 11.947 23.04 11.947 12.8 0 23.04-6.827 23.04-11.947V670.72c0-5.973-9.387-12.8-23.04-12.8z" fill="#53586F" p-id="4586"></path><path d="M661.42771 561.493c-21.334-17.92-285.014-292.693-360.96-296.106-76.8-2.56-138.24 100.693-152.747 197.12-13.653 96.426 24.747 187.733 47.787 195.413 23.04 7.68 413.866 6.827 434.346 8.533 32.427-0.853 52.907-87.04 31.574-104.96z" fill="#8DCD00" p-id="4587"></path><path d="M629.85371 677.547c-6.826-0.854-58.88-0.854-118.613-1.707-200.533-1.707-304.64-3.413-318.293-7.68-31.574-10.24-69.974-109.227-55.467-207.36 14.507-101.547 81.067-209.067 162.987-205.653 58.88 2.56 203.093 137.386 336.213 268.8 15.36 15.36 27.307 27.306 30.72 29.866 16.213 13.654 15.36 50.347 5.12 79.36-8.533 27.307-24.747 43.52-42.667 44.374zM296.20171 276.48c-66.56 0-124.587 96.427-138.24 187.733-13.653 94.72 25.6 178.347 40.96 183.467 16.213 4.267 201.387 5.973 311.467 6.827 71.68 0.853 110.08 0.853 119.466 1.706 7.68-0.853 17.067-12.8 23.04-30.72 9.387-27.306 6.827-51.2 0.854-55.466-4.267-3.414-14.507-13.654-32.427-31.574-65.707-64-263.68-260.266-322.56-262.826 0 0.853-0.853 0.853-2.56 0.853z" fill="#53586F" p-id="4588"></path><path d="M153.69371 427.52c-22.186 84.48-1.706 209.067 34.134 218.453 36.693 9.387 75.093-98.986 97.28-183.466 22.186-83.627 32.426-181.76-5.12-187.734-42.667-5.12-104.107 69.12-126.294 152.747z" fill="#4E7F00" p-id="4589"></path><path d="M192.94771 657.067c-2.56 0-5.12 0-7.68-0.854-40.107-10.24-69.12-132.266-42.667-231.253 21.333-81.92 85.333-167.253 139.093-160.427 9.387 0.854 17.067 5.974 22.187 14.507 21.333 32.427 9.387 116.907-8.533 186.027-33.28 128-68.267 192-102.4 192z m81.92-371.2c-39.254 0-93.014 77.653-110.934 145.066-23.04 85.334 1.707 197.974 27.307 204.8 17.067 5.12 52.053-53.76 84.48-175.786 20.48-78.507 25.6-147.627 11.947-168.96-2.56-4.267-5.974-5.12-7.68-5.12h-5.12z" fill="#53586F" p-id="4590"></path><path d="M163.93371 424.96c-26.453 89.6 54.614 124.587 75.094 128 20.48 3.413 32.426 0.853 56.32-81.92 23.893-83.627 13.653-101.547-6.827-110.08-20.48-7.68-98.133-25.6-124.587 64zM244.14771 246.613c-6.827 5.974-17.067 5.974-22.187 0l-48.64-53.76c-5.973-5.973-4.267-16.213 2.56-22.186 6.827-5.974 17.067-5.974 22.187 0l48.64 53.76c5.973 5.973 5.12 15.36-2.56 22.186z m-69.12 52.054c-5.974 7.68-16.214 8.533-22.187 3.413l-56.32-45.227c-6.827-5.12-6.827-15.36-0.853-22.186 5.973-7.68 16.213-8.534 22.186-3.414l56.32 45.227c5.974 5.12 6.827 15.36 0.854 22.187z m-46.934 68.266c-3.413 8.534-12.8 13.654-20.48 10.24L40.20171 350.72c-7.68-3.413-11.093-12.8-7.68-21.333s12.8-13.654 20.48-10.24l67.413 26.453c6.827 2.56 11.094 11.947 7.68 21.333z m-26.453 98.134c-1.707 9.386-9.387 15.36-17.067 14.506l-71.68-10.24C4.36171 468.48-0.75829 459.947 0.09371 450.56 1.80171 441.173 9.48171 435.2 17.16171 436.053l71.68 10.24c8.533 0.854 14.507 9.387 12.8 18.774z m9.387 91.306c0.853 9.387-5.12 17.067-12.8 18.774l-71.68 7.68c-8.534 0.853-15.36-5.974-17.067-15.36-0.853-9.387 5.12-17.067 12.8-18.774l71.68-7.68c8.533 0 16.213 6.827 17.067 15.36z m29.866 69.974c5.12 7.68 4.267 17.92-2.56 22.186L80.30771 691.2c-6.827 5.12-16.214 2.56-22.187-5.12-5.12-7.68-4.267-17.92 2.56-22.187l58.027-42.666c6.826-5.12 16.213-2.56 22.186 5.12z" fill="#FFE04A" p-id="4591"></path><path d="M577.80171 862.72c23.04 45.227 2.56 71.68-29.868 88.747-33.28 17.066-85.333 20.48-89.6-26.454s0-79.36 24.747-90.453c23.893-11.093 71.68-17.067 94.72 28.16" fill="#FAE969" p-id="4592"></path><path d="M502.70771 969.387c-11.947 0-24.747-2.56-34.987-8.534-11.947-7.68-18.773-19.626-20.48-35.84-4.267-41.813-3.413-86.186 30.72-100.693 28.16-11.947 79.36-9.387 108.373 32.427 11.947 17.066 14.507 37.546 8.534 58.026-6.827 21.334-24.747 40.107-43.52 46.934-8.534 1.706-28.16 7.68-48.64 7.68z m8.533-130.56c-9.387 0-17.92 1.706-24.747 4.266-17.066 6.827-23.04 31.574-17.92 79.36 0.854 9.387 4.267 16.214 11.094 19.627 15.36 10.24 44.373 5.12 64.853-2.56 12.8-4.267 25.6-17.92 30.72-33.28 3.413-9.387 5.12-23.893-5.973-39.253-15.36-20.48-38.4-28.16-58.027-28.16z" fill="#545971" p-id="4593"></path><path d="M532.57371 842.24c9.387 98.987-46.08 133.973-119.466 141.653-73.387 7.68-171.52-24.746-145.92-114.346s57.173-147.627 110.933-148.48c52.053-1.707 145.067 21.333 154.453 121.173" fill="#FAE969" p-id="4594"></path><path d="M391.77371 994.987c-44.373 0-94.72-12.8-121.173-45.227-18.773-22.187-23.893-51.2-14.507-83.627 22.187-76.8 53.76-154.453 120.32-156.16 57.174-1.706 156.16 24.747 166.4 130.56 8.534 91.307-34.986 143.36-128.853 152.747-7.68 1.707-14.507 1.707-22.187 1.707z m-9.386-263.68h-5.974c-41.813 0.853-73.386 44.373-100.693 140.8-7.68 25.6-4.267 46.933 10.24 64 26.453 31.573 82.773 40.96 124.587 36.693 82.773-8.533 117.76-49.493 110.933-129.707-0.853-11.946-13.653-111.786-139.093-111.786z" fill="#545971" p-id="4595"></path></svg>